<svg width="73" height="72" viewBox="0 0 73 72" fill="none" xmlns="http://www.w3.org/2000/svg">
<path d="M68.0799 70.2648H4.22676C2.35066 69.8976 1.81776 69.3864 1.45276 67.5288V4.5504L2.29956 1.9872C25.0172 0.972001 47.7202 0.986401 70.394 2.0304C71.7518 24.4152 71.854 46.8864 70.6787 69.4368L68.0799 70.272V70.2648Z" fill="#E1A03D"/>
<path d="M5.26326 4.55041H67.0359C67.1089 4.55041 68.0798 5.50801 68.0798 5.58001V66.5064C68.0798 66.5784 67.1089 67.536 67.0359 67.536H5.26326C5.19026 67.536 4.21936 66.5784 4.21936 66.5064V5.57281C4.21936 5.38561 5.02966 4.89601 5.26326 4.54321V4.55041Z" fill="#531013"/>
<path d="M61.8237 13.4496L53.4724 58.608C51.5452 60.2136 40.2448 51.1704 37.2883 51.048C36.5802 51.1632 30.0686 63.864 29.178 56.268C28.9079 53.964 28.9152 42.3936 29.8569 41.1264C30.273 40.5576 35.2954 37.944 34.069 36.7272C33.412 36.0792 26.5719 41.6664 24.0607 41.508C23.3161 41.4576 10.9791 35.8776 10.5922 35.2512C10.2783 34.7544 10.1688 32.9688 10.8915 32.544L61.8309 13.4496H61.8237Z" fill="#E1A03E"/>
<path d="M58.3563 17.5608L51.414 55.2096C50.9614 55.836 39.3763 47.8008 37.836 47.6568C34.77 47.376 34.7116 51.7896 31.9814 52.128L32.3391 42.8976L49.6255 27.7776C51.7133 25.3512 50.5891 24.0624 47.7129 25.128L24.5719 38.6352L15.3228 34.6608L58.349 17.5608H58.3563Z" fill="#531013"/>
</svg>
